<!-- Generated by IcoMoon.io -->
<svg version="1.1" xmlns="http://www.w3.org/2000/svg" width="40" height="32" viewBox="0 0 40 32">
<title>price-tags</title>
<path d="M4-2.5v12c0 0.825 0.477 1.977 1.061 2.561l14.879 14.879c0.583 0.583 1.538 0.583 2.121 0l12.879-12.879c0.583-0.583 0.583-1.538 0-2.121l-14.879-14.879c-0.583-0.583-1.736-1.061-2.561-1.061h-12c-0.825 0-1.5 0.675-1.5 1.5zM16 5c0 1.657-1.343 3-3 3s-3-1.343-3-3 1.343-3 3-3 3 1.343 3 3z"></path>
<path d="M21 32l-17-17v2.5c0 0.825 0.477 1.977 1.061 2.561l14.879 14.879c0.583 0.583 1.538 0.583 2.121 0l12.879-12.879c0.583-0.583 0.583-1.538 0-2.121l-0.939-0.939-13 13z"></path>
</svg>
